<?xml version="1.0" encoding="UTF-8" standalone="no"?>
<svg
   xmlns:d="https://loading.io/stock/"
   xmlns:dc="http://purl.org/dc/elements/1.1/"
   xmlns:cc="http://creativecommons.org/ns#"
   xmlns:rdf="http://www.w3.org/1999/02/22-rdf-syntax-ns#"
   xmlns:svg="http://www.w3.org/2000/svg"
   xmlns="http://www.w3.org/2000/svg"
   xmlns:sodipodi="http://sodipodi.sourceforge.net/DTD/sodipodi-0.dtd"
   xmlns:inkscape="http://www.inkscape.org/namespaces/inkscape"
   xml:space="preserve"
   viewBox="0 0 100 100"
   y="0"
   x="0"
   id="圖層_1"
   version="1.1"
   width="200px"
   height="200px"
   style="width:100%;height:100%;background-size:initial;background-repeat-y:initial;background-repeat-x:initial;background-position-y:initial;background-position-x:initial;background-origin:initial;background-color:initial;background-clip:initial;background-attachment:initial;animation-play-state:paused"
   sodipodi:docname="interlocking-gear-white.svg"
   inkscape:version="0.92.4 (5da689c313, 2019-01-14)"><metadata
     id="metadata13"><rdf:RDF><cc:Work
         rdf:about=""><dc:format>image/svg+xml</dc:format><dc:type
           rdf:resource="http://purl.org/dc/dcmitype/StillImage" /></cc:Work></rdf:RDF></metadata><defs
     id="defs11" /><sodipodi:namedview
     pagecolor="#ffffff"
     bordercolor="#666666"
     borderopacity="1"
     objecttolerance="10"
     gridtolerance="10"
     guidetolerance="10"
     inkscape:pageopacity="0"
     inkscape:pageshadow="2"
     inkscape:window-width="640"
     inkscape:window-height="480"
     id="namedview9"
     showgrid="false"
     inkscape:zoom="1.18"
     inkscape:cx="100"
     inkscape:cy="100"
     inkscape:window-x="0"
     inkscape:window-y="0"
     inkscape:window-maximized="0"
     inkscape:current-layer="圖層_1" /><g
     class="ldl-scale"
     style="transform-origin:50% 50%;transform:rotate(0deg) scale(0.80000000000000004, 0.80000000000000004);animation-play-state:paused;fill:#ffffff"
     id="g6"><path
   fill="#333"
   d="M85.423 45.286l-2.103-.06a4.8 4.8 0 0 1-4.477-3.483 29.804 29.804 0 0 0-2.603-6.281 4.81 4.81 0 0 1 .694-5.645l1.437-1.521a4.716 4.716 0 0 0-6.666-6.666l-1.521 1.437a4.808 4.808 0 0 1-5.645.694 29.782 29.782 0 0 0-6.281-2.603 4.8 4.8 0 0 1-3.483-4.477l-.06-2.103a4.712 4.712 0 0 0-4.706-4.577h-.016a4.711 4.711 0 0 0-4.706 4.577l-.06 2.103a4.8 4.8 0 0 1-3.483 4.477 29.782 29.782 0 0 0-6.281 2.603 4.81 4.81 0 0 1-5.645-.694l-1.521-1.437a4.716 4.716 0 0 0-6.666 6.666l1.437 1.521a4.808 4.808 0 0 1 .694 5.645 29.782 29.782 0 0 0-2.603 6.281 4.8 4.8 0 0 1-4.477 3.483l-2.103.06a4.712 4.712 0 0 0-4.577 4.706v.015a4.712 4.712 0 0 0 4.577 4.706l2.103.06a4.8 4.8 0 0 1 4.477 3.483 29.804 29.804 0 0 0 2.603 6.281 4.81 4.81 0 0 1-.694 5.645l-1.437 1.521a4.715 4.715 0 0 0 6.666 6.666l1.521-1.437a4.808 4.808 0 0 1 5.645-.694 29.782 29.782 0 0 0 6.281 2.603 4.8 4.8 0 0 1 3.483 4.477l.06 2.103a4.712 4.712 0 0 0 4.706 4.577h.014a4.712 4.712 0 0 0 4.706-4.577l.06-2.103a4.8 4.8 0 0 1 3.483-4.477 29.782 29.782 0 0 0 6.281-2.603 4.81 4.81 0 0 1 5.645.694l1.521 1.437a4.715 4.715 0 0 0 6.666-6.666l-1.437-1.521a4.808 4.808 0 0 1-.694-5.645 29.782 29.782 0 0 0 2.603-6.281 4.8 4.8 0 0 1 4.477-3.483l2.103-.06a4.712 4.712 0 0 0 4.577-4.706v-.014a4.71 4.71 0 0 0-4.575-4.707zM50 65c-8.284 0-15-6.716-15-15 0-8.284 6.716-15 15-15s15 6.716 15 15c0 8.284-6.716 15-15 15z"
   data-darkreader-inline-fill=""
   style="fill:#ffffff;animation-play-state:paused"
   id="path2" />
<metadata
   style="animation-play-state:paused"
   id="metadata4"><d:name
   style="animation-play-state:paused">gear</d:name>


<d:tags
   style="animation-play-state:paused">setting,profile,customize,wheel,pinion,gear</d:tags>


<d:license
   style="animation-play-state:paused">by</d:license>


<d:slug
   style="animation-play-state:paused">qf44n4</d:slug></metadata></g><!-- generated by https://loading.io/ --></svg>